<svg  viewBox="0 0 792 510" fill="none" xmlns="http://www.w3.org/2000/svg">
<path fill-rule="evenodd" clip-rule="evenodd" d="M229.669 77.1752L374.692 251.373L590.04 130.704L768.34 261.175L767.75 261.982L589.968 131.89L374.455 252.652L229.476 78.5068L17.1173 220.498L16.5615 219.667L229.669 77.1752Z" fill="#D84727" fill-opacity="0.61"/>
<path fill-rule="evenodd" clip-rule="evenodd" d="M223.491 128.72L366.479 306.962L587.352 178.675L780.12 324.119L779.518 324.917L587.28 179.873L366.237 308.259L223.293 130.07L24.3177 266.94L23.751 266.116L223.491 128.72Z" fill="#D84727" fill-opacity="0.4"/>
<path fill-rule="evenodd" clip-rule="evenodd" d="M214.096 172.649L360.696 359.858L581.022 229.234L791.15 395.277L790.53 396.062L580.941 230.445L360.451 361.166L213.922 174.049L31.8411 315.346L31.228 314.556L214.096 172.649Z" fill="#D84727" fill-opacity="0.2"/>
</svg>
